<?xml version="1.0" encoding="UTF-8" standalone="no"?>
<!-- Created with Inkscape (http://www.inkscape.org/) -->

<svg
   xmlns:dc="http://purl.org/dc/elements/1.1/"
   xmlns:cc="http://creativecommons.org/ns#"
   xmlns:rdf="http://www.w3.org/1999/02/22-rdf-syntax-ns#"
   xmlns:svg="http://www.w3.org/2000/svg"
   xmlns="http://www.w3.org/2000/svg"
   xmlns:sodipodi="http://sodipodi.sourceforge.net/DTD/sodipodi-0.dtd"
   xmlns:inkscape="http://www.inkscape.org/namespaces/inkscape"
   width="400"
   height="300"
   viewBox="0 0 400 300"
   id="svg2"
   version="1.1"
   inkscape:version="0.91 r13725"
   sodipodi:docname="lua-compute-diagram.svg"
   inkscape:export-filename="/home/emanuel/Prog/c/lua-compute/design/docs/overview-90dpi.png"
   inkscape:export-xdpi="90"
   inkscape:export-ydpi="90">
  <defs
     id="defs4" />
  <sodipodi:namedview
     id="base"
     pagecolor="#ffffff"
     bordercolor="#666666"
     borderopacity="1.0"
     inkscape:pageopacity="0.0"
     inkscape:pageshadow="2"
     inkscape:zoom="1"
     inkscape:cx="200"
     inkscape:cy="150"
     inkscape:document-units="px"
     inkscape:current-layer="layer1"
     showgrid="false"
     units="px"
     inkscape:window-width="1855"
     inkscape:window-height="1056"
     inkscape:window-x="65"
     inkscape:window-y="24"
     inkscape:window-maximized="1"
     showguides="true"
     inkscape:guide-bbox="true">
    <inkscape:grid
       type="xygrid"
       id="grid4136"
       spacingx="1"
       spacingy="1"
       empspacing="4" />
  </sodipodi:namedview>
  <metadata
     id="metadata7">
    <rdf:RDF>
      <cc:Work
         rdf:about="">
        <dc:format>image/svg+xml</dc:format>
        <dc:type
           rdf:resource="http://purl.org/dc/dcmitype/StillImage" />
        <dc:title></dc:title>
      </cc:Work>
    </rdf:RDF>
  </metadata>
  <g
     inkscape:label="Layer 1"
     inkscape:groupmode="layer"
     id="layer1"
     transform="translate(0,-752.36216)">
    <path
       id="path5655"
       d="m 292,814.36216 0,12 -216,0 0,20 216,0 0,12 36,-22 z"
       style="opacity:0.2;fill:#1a237e;fill-opacity:1;stroke:none;stroke-width:2;stroke-linejoin:miter;stroke-miterlimit:4;stroke-dasharray:none;stroke-opacity:1"
       inkscape:connector-curvature="0"
       sodipodi:nodetypes="cccccccc" />
    <g
       id="g5506"
       transform="matrix(1.6,0,0,1.6,-382.4,-233.0173)">
      <path
         style="display:inline;opacity:1;fill:#1a237e;fill-opacity:1;stroke:none"
         d="m 348,648.36216 a 4,4 0 0 0 -4,4 l 0,32 a 4,4 0 0 0 4,4 l 32,0 a 4,4 0 0 0 4,-4 l 0,-32 a 4,4 0 0 0 -4,-4 l -32,0 z"
         id="path4805"
         inkscape:connector-curvature="0" />
      <path
         inkscape:connector-curvature="0"
         id="path4770"
         d="M 361.89844,651.56529 A 18.898867,18.898867 0 0 0 344,664.45005 l 0,12.00391 a 18.898867,18.898867 0 0 0 11.88672,11.9082 l 12.00196,0 a 18.898867,18.898867 0 0 0 12.9082,-17.89844 18.898867,18.898867 0 0 0 -18.89844,-18.89843 z"
         style="display:inline;opacity:1;fill:#141b62;fill-opacity:1;stroke:none" />
      <path
         inkscape:connector-curvature="0"
         id="rect4171"
         d="m 360.94336,651.11802 -0.96875,0.0508 -0.0254,0 -0.0254,0 -1.87695,0.28711 -0.0254,0 -0.0234,0.01 -0.12695,0.0312 0.24804,0.9668 0.10157,-0.0234 1.82226,-0.27734 0.94922,-0.0488 -0.0488,-0.9961 z m 3.09571,0.0664 -0.15235,0.98828 1.75,0.26757 1.14258,0.29297 0.25,-0.96875 -1.16406,-0.29882 -0.0254,-0.01 -0.0254,0 -1.77539,-0.27149 z m -9.08399,1.19531 -0.55273,0.20117 -0.0215,0.01 -0.0234,0.0117 -1.65235,0.79492 -0.0215,0.0137 -0.0195,0.0117 -0.49609,0.30078 0.51953,0.85547 0.45313,-0.27734 0.0117,-0.01 1.61328,-0.7793 0.5332,-0.19531 -0.34375,-0.9375 z m 14.98438,0.42969 -0.4336,0.90039 1.19532,0.57812 1.38867,0.8418 0.51953,-0.85352 -1.41016,-0.85742 -0.0215,-0.0117 -0.0215,-0.0137 -1.21679,-0.58398 z m -20.2793,2.63476 -0.0508,0.0371 -0.0176,0.0137 -0.0176,0.0156 -1.34375,1.2207 -0.0176,0.0176 -0.0156,0.0176 -0.75586,0.83204 0.74024,0.67382 0.72265,-0.79882 0.008,-0.01 1.31445,-1.19532 0.0312,-0.0254 -0.59765,-0.79882 z m 25.37695,0.75 -0.67382,0.74024 0.57812,0.52539 1.17188,1.28711 0.004,0 0.22656,0.30078 0.80078,-0.59766 -0.23047,-0.30664 -0.0137,-0.0195 -0.0156,-0.0176 -1.2207,-1.3418 -0.0156,-0.0176 -0.0176,-0.0156 -0.59375,-0.53711 z m -29.46093,3.86524 -0.68946,1.13476 -0.0137,0.0234 -0.01,0.0215 -0.72656,1.50391 0.90234,0.43359 0.71485,-1.48242 0.67578,-1.11328 -0.85352,-0.52149 z m 33.26757,0.91796 -0.85546,0.51758 0.11914,0.19727 0.77343,1.60547 0.30664,0.83593 0.93946,-0.34375 -0.3125,-0.85351 -0.008,-0.0234 -0.0117,-0.0234 -0.79494,-1.65046 -0.0117,-0.0215 -0.0117,-0.0234 -0.13281,-0.21679 z M 344,665.89536 l 0,0.4961 0.11914,-0.46485 L 344,665.89536 Z m 36.96875,0.8711 -0.98828,0.15039 0.25196,1.6582 0.0664,1.26953 0.99804,-0.0488 -0.0644,-1.29101 -0.002,-0.0254 -0.004,-0.0234 -0.25781,-1.68946 z m -0.79492,5.97265 -0.21875,1.43164 -0.37304,1.45313 0.96875,0.25 0.3789,-1.47656 0.008,-0.0254 0.002,-0.0234 0.22266,-1.45899 -0.98828,-0.15039 z m -35.7207,3.45118 -0.45313,0.16601 0,1.50391 0.0488,0.13281 0.008,0.0215 0.01,0.0234 0.62891,1.30469 0.90039,-0.43555 -0.62305,-1.29297 -0.004,-0.0117 -0.51562,-1.41211 z m 34.0918,2.13671 -0.44141,0.91407 -0.006,0.0117 -0.90625,1.49023 -0.0781,0.10547 0.80078,0.59961 0.0879,-0.11719 0.0156,-0.0215 0.0117,-0.0195 0.94727,-1.55859 0.0117,-0.0215 0.0117,-0.0195 0.44531,-0.92969 -0.90039,-0.43359 z m -31.41016,3.03711 -0.80078,0.59961 0.61328,0.82227 0.0137,0.0176 0.0176,0.0176 1.21875,1.34375 0.0156,0.0176 0.0176,0.0156 0.11914,0.10742 0.67383,-0.74024 -0.10156,-0.0918 -1.19336,-1.31445 -0.01,-0.0117 -0.58398,-0.78321 z m 28.11523,1.76758 -0.32031,0.34961 -0.006,0.01 -1.28906,1.16797 -0.54492,0.41016 0.59765,0.80078 0.56446,-0.42188 0.0195,-0.0137 0.0176,-0.0195 1.34179,-1.21875 0.0176,-0.0156 0.0156,-0.0156 0.32422,-0.35937 -0.73824,-0.67412 z m -23.96093,2.32422 -0.59961,0.80078 0.375,0.28125 0.0195,0.0137 0.0215,0.0137 1.55859,0.94531 0.0195,0.0156 0.0215,0.01 0.63867,0.30665 0.4336,-0.9004 -0.625,-0.30078 -0.0117,-0.01 -1.50196,-0.91797 -0.34961,-0.25781 z m 19.375,1.20898 -1.58399,0.76368 -0.01,0 -1.10937,0.40429 0.19339,0.5293 1.26758,0 0.0371,-0.0137 0.0234,-0.01 0.0215,-0.0117 1.5957,-0.76758 -0.43554,-0.89453 z m -14.20508,1.36915 -0.084,0.32812 1.35742,0 -1.27344,-0.32812 z"
         style="display:inline;opacity:1;fill:#c3c6f2;fill-opacity:1;stroke:none" />
      <rect
         y="652.36212"
         x="351"
         height="27"
         width="3"
         id="rect4342"
         style="opacity:1;fill:#ffffff;fill-opacity:1;stroke:none;stroke-width:1;stroke-linejoin:round;stroke-miterlimit:4;stroke-dasharray:none;stroke-opacity:1" />
      <path
         inkscape:connector-curvature="0"
         id="path4236"
         d="m 365,661.36216 c -4.35872,0 -7.99146,3.09837 -8.82031,7.21289 -0.0582,0.28865 -0.103,0.58293 -0.13281,0.88086 -0.0298,0.2982 -0.0469,0.6002 -0.0469,0.90625 0.004,2.55657 1.09444,4.99094 3,6.69531 l 0,-0.002 c 1.64787,1.48125 3.78425,2.30256 6,2.30664 2.83144,-0.003 5.49622,-1.33902 7.19336,-3.60547 l -2.39844,-1.79878 c -1.13115,1.51103 -2.90741,2.40169 -4.79492,2.4043 -3.31371,0 -6,-2.68629 -6,-6 0,-3.31371 2.68629,-6 6,-6 1.88751,0.003 3.66377,0.89327 4.79492,2.4043 l 2.39649,-1.79688 c -1.6963,-2.26663 -4.36029,-3.60296 -7.19139,-3.60742 z"
         style="opacity:1;fill:#ffffff;fill-opacity:1;stroke:none;stroke-width:0.40000001;stroke-linejoin:round;stroke-miterlimit:4;stroke-dasharray:none;stroke-opacity:1" />
    </g>
    <g
       id="g5515"
       transform="translate(-24,63.99998)"
       style="fill:#1a8179;fill-opacity:1">
      <path
         style="opacity:1;fill:#1a8179;fill-opacity:1;stroke:none;stroke-width:2;stroke-linejoin:miter;stroke-miterlimit:4;stroke-dasharray:none;stroke-opacity:1"
         d="m 64,110 a 24,24 0 0 0 -24,24 24,24 0 0 0 24,24 24,24 0 0 0 24,-24 24,24 0 0 0 -24,-24 z m -5.984375,8.38672 c 0.533333,0 1.041484,0.0802 1.521484,0.24023 0.48,0.16 0.893568,0.32047 1.240235,0.48047 0.346666,0.16 0.692396,0.46659 1.039062,0.91992 0.373334,0.42667 0.653177,0.76 0.839844,1 0.186667,0.24 0.42737,0.68032 0.720703,1.32032 0.32,0.64 0.519609,1.06596 0.599609,1.27929 0.08,0.21334 0.267214,0.70714 0.560547,1.48047 0.293334,0.77334 0.466198,1.22604 0.519532,1.35938 l 6.640625,17.51953 c 0.213333,0.50666 0.585807,0.76172 1.11914,0.76172 0.133334,0 0.374037,-0.0535 0.720703,-0.16016 0.346667,-0.10667 0.558672,-0.20125 0.638672,-0.28125 l 0.800781,2.80078 c -1.279999,0.64 -2.360234,0.95899 -3.240234,0.95899 -0.666667,0 -1.226354,-0.15852 -1.679687,-0.47852 -0.426667,-0.32 -0.733256,-0.65333 -0.919922,-1 -0.186667,-0.37333 -0.400625,-0.92062 -0.640625,-1.64062 l -4.878906,-14.16016 -5.839844,16.80078 -3.839844,0 7.919922,-20.80078 c -0.373333,-1.04 -0.640781,-1.76016 -0.800781,-2.16016 -0.16,-0.42666 -0.413099,-0.90612 -0.759766,-1.43945 -0.346667,-0.56 -0.73349,-0.92008 -1.160156,-1.08008 -0.426667,-0.18666 -0.95961,-0.27929 -1.59961,-0.2793 l -2.160156,0.31836 0.400391,-3.27929 c 0.88,-0.32 1.624948,-0.48047 2.238281,-0.48047 z"
         transform="translate(160,710.36218)"
         id="path5513"
         inkscape:connector-curvature="0" />
    </g>
    <path
       style="opacity:1;fill:#8f237e;fill-opacity:1;stroke:none;stroke-width:2;stroke-linejoin:miter;stroke-miterlimit:4;stroke-dasharray:none;stroke-opacity:1"
       d="m 60,812.36216 a 24,24 0 0 0 -24,24 24,24 0 0 0 14.86914,22.18359 l 0,-29.05664 c 0,-5.9375 2.77344,-8.90625 8.32031,-8.90625 5.65104,0 8.47657,2.50651 8.47657,7.51953 0,3.56771 -1.1198,6.0026 -3.35938,7.30469 3.64583,1.17187 5.46875,3.49609 5.46875,6.97265 0,6.17188 -3.13802,9.25782 -9.41406,9.25782 -2.76042,0 -4.72005,-0.58594 -5.87891,-1.75782 l 0,9.66797 -0.5664,0 A 24,24 0 0 0 60,860.36216 a 24,24 0 0 0 24,-24 24,24 0 0 0 -24,-24 z m -0.41992,11.15039 c -3.39844,0 -5.09766,2.03125 -5.09766,6.09375 l 0,15.58593 c 1.44532,2.25261 3.45053,3.37891 6.01563,3.37891 3.75,0 5.625,-2.04427 5.625,-6.13281 0,-3.67188 -3.02084,-5.36459 -9.0625,-5.07813 l 0,-3.32031 c 4.72656,0 7.08984,-2.08333 7.08984,-6.25 0,-2.85157 -1.52343,-4.27734 -4.57031,-4.27734 z"
       id="circle5522"
       inkscape:connector-curvature="0" />
    <g
       style="font-style:normal;font-weight:normal;font-size:40px;line-height:125%;font-family:Sans;letter-spacing:0px;word-spacing:0px;fill:#ffffff;fill-opacity:1;stroke:none;stroke-width:1px;stroke-linecap:butt;stroke-linejoin:miter;stroke-opacity:1"
       id="text4813" />
    <path
       style="opacity:1;fill:#c86e2a;fill-opacity:1;stroke:none;stroke-width:2;stroke-linejoin:miter;stroke-miterlimit:4;stroke-dasharray:none;stroke-opacity:1"
       d="m 340,812.36216 a 24,24 0 0 0 -24,24 24,24 0 0 0 12.42383,21.01953 l 0,-27.77539 c 0,-5.9375 2.77344,-8.90625 8.32031,-8.90625 5.65105,0 8.47656,2.50651 8.47656,7.51953 0,3.56771 -1.11979,6.0026 -3.35937,7.30469 3.64583,1.17187 5.46875,3.4961 5.46875,6.97266 0,6.17187 -3.13802,9.25781 -9.41406,9.25781 -2.76042,0 -4.72006,-0.58594 -5.87891,-1.75781 l 0,8.97461 a 24,24 0 0 0 7.96289,1.39062 24,24 0 0 0 24,-24 24,24 0 0 0 -24,-24 z m -2.86523,11.26758 c -3.39844,0 -5.09766,2.03125 -5.09766,6.09375 l 0,15.58594 c 1.44531,2.2526 3.45052,3.3789 6.01562,3.3789 3.75,0 5.625,-2.04427 5.625,-6.13281 0,-3.67188 -3.02083,-5.36458 -9.0625,-5.07812 l 0,-3.32032 c 4.72656,0 7.08985,-2.08333 7.08985,-6.25 0,-2.85156 -1.52344,-4.27734 -4.57031,-4.27734 z m 16.97461,16.80859 c 1.35565,0 2.45682,0.53673 3.30078,1.61328 0.85061,1.07655 1.27539,2.49367 1.27539,4.24805 0,1.75438 -0.42478,3.16955 -1.27539,4.2461 -0.84396,1.07655 -1.94513,1.61328 -3.30078,1.61328 -0.8174,0 -1.52185,-0.15759 -2.11329,-0.47657 -0.58479,-0.32561 -1.06965,-0.82178 -1.45507,-1.48632 l 0,5.92187 -1.84375,0 0,-15.41211 1.84375,0 0,1.69531 c 0.38542,-0.66454 0.87028,-1.15563 1.45507,-1.47461 0.59144,-0.32562 1.2959,-0.48828 2.11329,-0.48828 z m -0.44727,1.53516 c -0.97023,0 -1.73476,0.38538 -2.29297,1.15625 -0.55157,0.76421 -0.82812,1.82091 -0.82812,3.16992 0,1.34901 0.27655,2.40883 0.82812,3.17969 0.55821,0.76421 1.32274,1.14648 2.29297,1.14648 0.97022,0 1.72968,-0.38227 2.28125,-1.14648 0.55821,-0.77086 0.83789,-1.83068 0.83789,-3.17969 0,-1.34901 -0.27968,-2.40571 -0.83789,-3.16992 -0.55157,-0.77087 -1.31103,-1.15625 -2.28125,-1.15625 z"
       id="path5534"
       inkscape:connector-curvature="0" />
    <g
       style="fill:#1a8179;fill-opacity:1"
       transform="translate(-24,119.99998)"
       id="g5547">
      <path
         inkscape:connector-curvature="0"
         id="path5549"
         transform="translate(160,710.36218)"
         d="m 64,110 a 24,24 0 0 0 -24,24 24,24 0 0 0 24,24 24,24 0 0 0 24,-24 24,24 0 0 0 -24,-24 z m -5.984375,8.38672 c 0.533333,0 1.041484,0.0802 1.521484,0.24023 0.48,0.16 0.893568,0.32047 1.240235,0.48047 0.346666,0.16 0.692396,0.46659 1.039062,0.91992 0.373334,0.42667 0.653177,0.76 0.839844,1 0.186667,0.24 0.42737,0.68032 0.720703,1.32032 0.32,0.64 0.519609,1.06596 0.599609,1.27929 0.08,0.21334 0.267214,0.70714 0.560547,1.48047 0.293334,0.77334 0.466198,1.22604 0.519532,1.35938 l 6.640625,17.51953 c 0.213333,0.50666 0.585807,0.76172 1.11914,0.76172 0.133334,0 0.374037,-0.0535 0.720703,-0.16016 0.346667,-0.10667 0.558672,-0.20125 0.638672,-0.28125 l 0.800781,2.80078 c -1.279999,0.64 -2.360234,0.95899 -3.240234,0.95899 -0.666667,0 -1.226354,-0.15852 -1.679687,-0.47852 -0.426667,-0.32 -0.733256,-0.65333 -0.919922,-1 -0.186667,-0.37333 -0.400625,-0.92062 -0.640625,-1.64062 l -4.878906,-14.16016 -5.839844,16.80078 -3.839844,0 7.919922,-20.80078 c -0.373333,-1.04 -0.640781,-1.76016 -0.800781,-2.16016 -0.16,-0.42666 -0.413099,-0.90612 -0.759766,-1.43945 -0.346667,-0.56 -0.73349,-0.92008 -1.160156,-1.08008 -0.426667,-0.18666 -0.95961,-0.27929 -1.59961,-0.2793 l -2.160156,0.31836 0.400391,-3.27929 c 0.88,-0.32 1.624948,-0.48047 2.238281,-0.48047 z"
         style="opacity:1;fill:#1a8179;fill-opacity:1;stroke:none;stroke-width:2;stroke-linejoin:miter;stroke-miterlimit:4;stroke-dasharray:none;stroke-opacity:1" />
    </g>
    <g
       id="g5551"
       transform="translate(-24,175.99998)"
       style="fill:#1a8179;fill-opacity:1">
      <path
         style="opacity:1;fill:#1a8179;fill-opacity:1;stroke:none;stroke-width:2;stroke-linejoin:miter;stroke-miterlimit:4;stroke-dasharray:none;stroke-opacity:1"
         d="m 64,110 a 24,24 0 0 0 -24,24 24,24 0 0 0 24,24 24,24 0 0 0 24,-24 24,24 0 0 0 -24,-24 z m -5.984375,8.38672 c 0.533333,0 1.041484,0.0802 1.521484,0.24023 0.48,0.16 0.893568,0.32047 1.240235,0.48047 0.346666,0.16 0.692396,0.46659 1.039062,0.91992 0.373334,0.42667 0.653177,0.76 0.839844,1 0.186667,0.24 0.42737,0.68032 0.720703,1.32032 0.32,0.64 0.519609,1.06596 0.599609,1.27929 0.08,0.21334 0.267214,0.70714 0.560547,1.48047 0.293334,0.77334 0.466198,1.22604 0.519532,1.35938 l 6.640625,17.51953 c 0.213333,0.50666 0.585807,0.76172 1.11914,0.76172 0.133334,0 0.374037,-0.0535 0.720703,-0.16016 0.346667,-0.10667 0.558672,-0.20125 0.638672,-0.28125 l 0.800781,2.80078 c -1.279999,0.64 -2.360234,0.95899 -3.240234,0.95899 -0.666667,0 -1.226354,-0.15852 -1.679687,-0.47852 -0.426667,-0.32 -0.733256,-0.65333 -0.919922,-1 -0.186667,-0.37333 -0.400625,-0.92062 -0.640625,-1.64062 l -4.878906,-14.16016 -5.839844,16.80078 -3.839844,0 7.919922,-20.80078 c -0.373333,-1.04 -0.640781,-1.76016 -0.800781,-2.16016 -0.16,-0.42666 -0.413099,-0.90612 -0.759766,-1.43945 -0.346667,-0.56 -0.73349,-0.92008 -1.160156,-1.08008 -0.426667,-0.18666 -0.95961,-0.27929 -1.59961,-0.2793 l -2.160156,0.31836 0.400391,-3.27929 c 0.88,-0.32 1.624948,-0.48047 2.238281,-0.48047 z"
         transform="translate(160,710.36218)"
         id="path5553"
         inkscape:connector-curvature="0" />
    </g>
    <path
       style="opacity:1;fill:#1a237e;fill-opacity:1;stroke:none;stroke-width:2;stroke-linejoin:miter;stroke-miterlimit:4;stroke-dasharray:none;stroke-opacity:1"
       d="m 300,828.36216 0,6 -60,0 0,4 60,0 0,6 12,-8 -12,-8 z"
       id="path5653"
       inkscape:connector-curvature="0" />
    <path
       style="opacity:1;fill:#156761;fill-opacity:1;stroke:none;stroke-width:2;stroke-linejoin:miter;stroke-miterlimit:4;stroke-dasharray:none;stroke-opacity:1"
       d="m 248,850.36216 -12,8 12,8 0,-6 4,0 0,102 -20,0 0,4 24,0 0,-106 0,-4 -4,0 -4,0 0,-6 z"
       id="rect5565"
       inkscape:connector-curvature="0" />
    <path
       style="opacity:1;fill:#1a237e;fill-opacity:1;stroke:none;stroke-width:2;stroke-linejoin:miter;stroke-miterlimit:4;stroke-dasharray:none;stroke-opacity:1"
       d="m 92,834.36216 0,4 68,0 0,-4 z"
       id="path5649"
       inkscape:connector-curvature="0" />
    <path
       style="opacity:1;fill:#156761;fill-opacity:1;stroke:none;stroke-width:2;stroke-linejoin:miter;stroke-miterlimit:4;stroke-dasharray:none;stroke-opacity:1"
       d="m 144,856.36216 0,4 0,106 16,0 0,6 12,-8 -12,-8 0,6 -12,0 0,-102 12,0 0,-4 -12,0 z"
       id="path5626"
       inkscape:connector-curvature="0" />
    <text
       xml:space="preserve"
       style="font-style:normal;font-weight:normal;font-size:40px;line-height:125%;font-family:Sans;letter-spacing:0px;word-spacing:0px;fill:#771e69;fill-opacity:1;stroke:none;stroke-width:1px;stroke-linecap:butt;stroke-linejoin:miter;stroke-opacity:1"
       x="59.931404"
       y="783.8736"
       id="text5657"
       sodipodi:linespacing="125%"><tspan
         sodipodi:role="line"
         id="tspan5659"
         x="59.931404"
         y="783.8736"
         style="font-style:normal;font-variant:normal;font-weight:normal;font-stretch:normal;font-size:16.25px;font-family:FreeSans;-inkscape-font-specification:FreeSans;text-align:center;text-anchor:middle;fill:#771e69;fill-opacity:1">Input</tspan></text>
    <text
       sodipodi:linespacing="125%"
       id="text5661"
       y="783.97107"
       x="339.92172"
       style="font-style:normal;font-weight:normal;font-size:40px;line-height:125%;font-family:Sans;letter-spacing:0px;word-spacing:0px;fill:#93511f;fill-opacity:1;stroke:none;stroke-width:1px;stroke-linecap:butt;stroke-linejoin:miter;stroke-opacity:1"
       xml:space="preserve"><tspan
         style="font-style:normal;font-variant:normal;font-weight:normal;font-stretch:normal;font-size:16.25px;font-family:FreeSans;-inkscape-font-specification:FreeSans;text-align:center;text-anchor:middle;fill:#93511f;fill-opacity:1"
         y="783.97107"
         x="339.92172"
         sodipodi:role="line"
         id="tspan5665">Output</tspan></text>
    <text
       xml:space="preserve"
       style="font-style:normal;font-weight:normal;font-size:40px;line-height:125%;font-family:Sans;letter-spacing:0px;word-spacing:0px;fill:#000000;fill-opacity:1;stroke:none;stroke-width:1px;stroke-linecap:butt;stroke-linejoin:miter;stroke-opacity:1"
       x="220.3425"
       y="888.36218"
       id="text5667"
       sodipodi:linespacing="125%"><tspan
         sodipodi:role="line"
         id="tspan5669"
         x="220.3425"
         y="888.36218"
         style="font-style:normal;font-variant:normal;font-weight:normal;font-stretch:normal;font-size:16.25px;font-family:FreeSans;-inkscape-font-specification:FreeSans">1</tspan></text>
    <text
       sodipodi:linespacing="125%"
       id="text5673"
       y="944.36218"
       x="220.3425"
       style="font-style:normal;font-weight:normal;font-size:40px;line-height:125%;font-family:Sans;letter-spacing:0px;word-spacing:0px;fill:#000000;fill-opacity:1;stroke:none;stroke-width:1px;stroke-linecap:butt;stroke-linejoin:miter;stroke-opacity:1"
       xml:space="preserve"><tspan
         style="font-style:normal;font-variant:normal;font-weight:normal;font-stretch:normal;font-size:16.25px;font-family:FreeSans;-inkscape-font-specification:FreeSans"
         y="944.36218"
         x="220.3425"
         id="tspan5675"
         sodipodi:role="line">2</tspan></text>
    <text
       xml:space="preserve"
       style="font-style:normal;font-weight:normal;font-size:40px;line-height:125%;font-family:Sans;letter-spacing:0px;word-spacing:0px;fill:#000000;fill-opacity:1;stroke:none;stroke-width:1px;stroke-linecap:butt;stroke-linejoin:miter;stroke-opacity:1"
       x="220.3425"
       y="1000.3622"
       id="text5677"
       sodipodi:linespacing="125%"><tspan
         sodipodi:role="line"
         id="tspan5679"
         x="220.3425"
         y="1000.3622"
         style="font-style:normal;font-variant:normal;font-weight:normal;font-stretch:normal;font-size:16.25px;font-family:FreeSans;-inkscape-font-specification:FreeSans">3</tspan></text>
    <text
       xml:space="preserve"
       style="font-style:normal;font-weight:normal;font-size:40px;line-height:125%;font-family:Sans;letter-spacing:0px;word-spacing:0px;fill:#000000;fill-opacity:1;stroke:none;stroke-width:1px;stroke-linecap:butt;stroke-linejoin:miter;stroke-opacity:1"
       x="80.342499"
       y="816.36218"
       id="text5681"
       sodipodi:linespacing="125%"><tspan
         sodipodi:role="line"
         id="tspan5683"
         x="80.342499"
         y="816.36218"
         style="font-style:normal;font-variant:normal;font-weight:normal;font-stretch:normal;font-size:16.25px;font-family:FreeSans;-inkscape-font-specification:FreeSans">2</tspan></text>
    <text
       sodipodi:linespacing="125%"
       id="text5685"
       y="868.36218"
       x="80.342499"
       style="font-style:normal;font-weight:normal;font-size:40px;line-height:125%;font-family:Sans;letter-spacing:0px;word-spacing:0px;fill:#000000;fill-opacity:1;stroke:none;stroke-width:1px;stroke-linecap:butt;stroke-linejoin:miter;stroke-opacity:1"
       xml:space="preserve"><tspan
         style="font-style:normal;font-variant:normal;font-weight:normal;font-stretch:normal;font-size:16.25px;font-family:FreeSans;-inkscape-font-specification:FreeSans"
         y="868.36218"
         x="80.342499"
         id="tspan5687"
         sodipodi:role="line">x</tspan></text>
    <text
       sodipodi:linespacing="125%"
       id="text5693"
       y="816.36218"
       x="360.3425"
       style="font-style:normal;font-weight:normal;font-size:40px;line-height:125%;font-family:Sans;letter-spacing:0px;word-spacing:0px;fill:#000000;fill-opacity:1;stroke:none;stroke-width:1px;stroke-linecap:butt;stroke-linejoin:miter;stroke-opacity:1"
       xml:space="preserve"><tspan
         style="font-style:normal;font-variant:normal;font-weight:normal;font-stretch:normal;font-size:16.25px;font-family:FreeSans;-inkscape-font-specification:FreeSans"
         y="816.36218"
         x="360.3425"
         id="tspan5695"
         sodipodi:role="line">2</tspan></text>
    <text
       xml:space="preserve"
       style="font-style:normal;font-weight:normal;font-size:40px;line-height:125%;font-family:Sans;letter-spacing:0px;word-spacing:0px;fill:#000000;fill-opacity:1;stroke:none;stroke-width:1px;stroke-linecap:butt;stroke-linejoin:miter;stroke-opacity:1"
       x="360.3425"
       y="868.36218"
       id="text5697"
       sodipodi:linespacing="125%"><tspan
         sodipodi:role="line"
         id="tspan5699"
         x="360.3425"
         y="868.36218"
         style="font-style:normal;font-variant:normal;font-weight:normal;font-stretch:normal;font-size:16.25px;font-family:FreeSans;-inkscape-font-specification:FreeSans">x</tspan></text>
    <text
       sodipodi:linespacing="125%"
       id="text5709"
       y="783.8736"
       x="199.6828"
       style="font-style:normal;font-weight:normal;font-size:40px;line-height:125%;font-family:Sans;letter-spacing:0px;word-spacing:0px;fill:#1a237e;fill-opacity:1;stroke:none;stroke-width:1px;stroke-linecap:butt;stroke-linejoin:miter;stroke-opacity:1"
       xml:space="preserve"><tspan
         style="font-style:normal;font-variant:normal;font-weight:normal;font-stretch:normal;font-size:16.25px;font-family:FreeSans;-inkscape-font-specification:FreeSans;text-align:center;text-anchor:middle;fill:#1a237e;fill-opacity:1"
         y="783.8736"
         x="199.6828"
         id="tspan5711"
         sodipodi:role="line">Function</tspan></text>
  </g>
</svg>
