<?xml version="1.0" encoding="UTF-8" standalone="no"?>
<!-- Created with Inkscape (http://www.inkscape.org/) -->

<svg
   xmlns:dc="http://purl.org/dc/elements/1.1/"
   xmlns:cc="http://creativecommons.org/ns#"
   xmlns:rdf="http://www.w3.org/1999/02/22-rdf-syntax-ns#"
   xmlns:svg="http://www.w3.org/2000/svg"
   xmlns="http://www.w3.org/2000/svg"
   xmlns:sodipodi="http://sodipodi.sourceforge.net/DTD/sodipodi-0.dtd"
   xmlns:inkscape="http://www.inkscape.org/namespaces/inkscape"
   width="400"
   height="300"
   viewBox="0 0 400 300"
   id="svg2"
   version="1.1"
   inkscape:version="0.91 r13725"
   sodipodi:docname="lua-compute-diagram.svg"
   inkscape:export-filename="/home/emanuel/Prog/c/lua-compute/design/docs/overview-90dpi.png"
   inkscape:export-xdpi="90"
   inkscape:export-ydpi="90">
  <defs
     id="defs4" />
  <sodipodi:namedview
     id="base"
     pagecolor="#ffffff"
     bordercolor="#666666"
     borderopacity="1.0"
     inkscape:pageopacity="0.0"
     inkscape:pageshadow="2"
     inkscape:zoom="2.0559284"
     inkscape:cx="183.5"
     inkscape:cy="139.5"
     inkscape:document-units="px"
     inkscape:current-layer="layer1"
     showgrid="false"
     units="px"
     inkscape:window-width="1855"
     inkscape:window-height="1056"
     inkscape:window-x="65"
     inkscape:window-y="24"
     inkscape:window-maximized="1"
     showguides="true"
     inkscape:guide-bbox="true">
    <inkscape:grid
       type="xygrid"
       id="grid4136"
       spacingx="0.5"
       spacingy="0.5"
       empspacing="4" />
  </sodipodi:namedview>
  <metadata
     id="metadata7">
    <rdf:RDF>
      <cc:Work
         rdf:about="">
        <dc:format>image/svg+xml</dc:format>
        <dc:type
           rdf:resource="http://purl.org/dc/dcmitype/StillImage" />
        <dc:title></dc:title>
      </cc:Work>
    </rdf:RDF>
  </metadata>
  <g
     inkscape:label="Layer 1"
     inkscape:groupmode="layer"
     id="layer1"
     transform="translate(0,-752.36216)">
    <path
       id="path5655"
       d="m 292,814.36216 0,12 -216,0 0,20 216,0 0,12 36,-22 z"
       style="opacity:0.2;fill:#1a237e;fill-opacity:1;stroke:none;stroke-width:2;stroke-linejoin:miter;stroke-miterlimit:4;stroke-dasharray:none;stroke-opacity:1"
       inkscape:connector-curvature="0"
       sodipodi:nodetypes="cccccccc" />
    <path
       style="opacity:1;fill:#1a237e;fill-opacity:1;stroke:none;stroke-width:2;stroke-linejoin:miter;stroke-miterlimit:4;stroke-dasharray:none;stroke-opacity:1"
       d="m 300,76 0,6 -54,0 -14,0 -144,0 0,4 144,0 14,0 54,0 0,6 12,-8 z"
       transform="translate(0,752.36216)"
       id="path5653"
       inkscape:connector-curvature="0"
       sodipodi:nodetypes="cccccccccccc" />
    <path
       style="color:#000000;font-style:normal;font-variant:normal;font-weight:normal;font-stretch:normal;font-size:medium;line-height:normal;font-family:sans-serif;text-indent:0;text-align:start;text-decoration:none;text-decoration-line:none;text-decoration-style:solid;text-decoration-color:#000000;letter-spacing:normal;word-spacing:normal;text-transform:none;direction:ltr;block-progression:tb;writing-mode:lr-tb;baseline-shift:baseline;text-anchor:start;white-space:normal;clip-rule:nonzero;display:inline;overflow:visible;visibility:visible;opacity:1;isolation:auto;mix-blend-mode:normal;color-interpolation:sRGB;color-interpolation-filters:linearRGB;solid-color:#000000;solid-opacity:1;fill:#1a237e;fill-opacity:1;fill-rule:nonzero;stroke:none;stroke-width:8;stroke-linecap:butt;stroke-linejoin:round;stroke-miterlimit:4;stroke-dasharray:none;stroke-dashoffset:0;stroke-opacity:1;color-rendering:auto;image-rendering:auto;shape-rendering:auto;text-rendering:auto;enable-background:accumulate"
       d="M 244 98 L 232 106 L 244 114 L 244 108 L 252 108 L 252 210 L 227.91992 210 C 227.55579 204.89123 225.80633 200.15627 223.05273 196.16211 A 10 10 0 0 0 225 196.36523 A 10 10 0 0 0 235 186.36523 A 10 10 0 0 0 225 176.36523 A 10 10 0 0 0 215 186.36523 A 10 10 0 0 0 215.25 188.54688 C 210.85753 185.67557 205.61883 184 200 184 C 184.58341 184 172 196.5834 172 212 C 172 227.41659 184.58341 240 200 240 C 214.74304 240 226.88622 228.48849 227.91992 214 L 256 214 L 256 104 L 244 104 L 244 98 z M 225 178.09766 A 8.2683992 8.2683992 0 0 1 233.26758 186.36523 A 8.2683992 8.2683992 0 0 1 225 194.63281 A 8.2683992 8.2683992 0 0 1 221.10352 193.65234 C 220.09896 192.49802 219.00227 191.42652 217.82422 190.44922 A 8.2683992 8.2683992 0 0 1 216.73242 186.36523 A 8.2683992 8.2683992 0 0 1 225 178.09766 z M 200 192 C 211.09307 192 220 200.90692 220 212 C 220 223.09307 211.09307 232 200 232 C 188.90693 232 180 223.09307 180 212 C 180 200.90692 188.90693 192 200 192 z "
       transform="translate(0,752.36216)"
       id="path4206" />
    <path
       style="display:inline;opacity:1;fill:#1a237e;fill-opacity:1;stroke:none"
       d="M 174.40039 52 A 6.4 6.4 0 0 0 168 58.400391 L 168 104 L 144 104 L 144 214 L 160 214 L 160 220 L 172 212 L 160 204 L 160 210 L 148 210 L 148 108 L 168 108 L 168 109.59961 A 6.4 6.4 0 0 0 174.40039 116 L 225.59961 116 A 6.4 6.4 0 0 0 232 109.59961 L 232 58.400391 A 6.4 6.4 0 0 0 225.59961 52 L 174.40039 52 z "
       id="path4805"
       transform="translate(0,752.36216)" />
    <path
       style="display:inline;opacity:1;fill:#141b62;fill-opacity:1;stroke:none"
       d="M 196.6375,809.48716 A 30.238187,30.238187 0 0 0 168,830.10278 l 0,19.20626 a 30.238187,30.238187 0 0 0 19.01875,19.05312 l 19.20314,0 a 30.238187,30.238187 0 0 0 20.65312,-28.63751 30.238187,30.238187 0 0 0 -30.23751,-30.23749 z"
       id="path4770"
       inkscape:connector-curvature="0" />
    <path
       style="display:inline;opacity:1;fill:#c3c6f2;fill-opacity:1;stroke:none"
       d="m 195.10938,808.77153 -1.55,0.0813 -0.0406,0 -0.0406,0 -3.00312,0.45938 -0.0406,0 -0.0374,0.016 -0.20312,0.0499 0.39686,1.54688 0.16251,-0.0374 2.91562,-0.44375 1.51875,-0.0781 -0.0781,-1.59376 z m 4.95313,0.10624 -0.24376,1.58125 2.8,0.42811 1.82813,0.46875 0.4,-1.55 -1.8625,-0.47811 -0.0406,-0.016 -0.0406,0 -2.84062,-0.43438 z m -14.53438,1.9125 -0.88437,0.32187 -0.0344,0.016 -0.0374,0.0187 -2.64376,1.27187 -0.0344,0.0219 -0.0312,0.0187 -0.79374,0.48125 0.83124,1.36875 0.72501,-0.44374 0.0187,-0.016 2.58125,-1.24688 0.85312,-0.3125 -0.55,-1.5 z m 23.97501,0.6875 -0.69376,1.44063 1.91251,0.92499 2.22187,1.34688 0.83125,-1.36563 -2.25626,-1.37188 -0.0344,-0.0187 -0.0344,-0.0219 -1.94686,-0.93436 z m -32.44688,4.21562 -0.0813,0.0594 -0.0282,0.0219 -0.0282,0.025 -2.15,1.95312 -0.0282,0.0282 -0.025,0.0282 -1.20938,1.33126 1.18438,1.07811 1.15624,-1.27811 0.0128,-0.016 2.10312,-1.91251 0.0499,-0.0406 -0.95624,-1.27811 z m 40.60312,1.2 -1.07812,1.18438 0.925,0.84063 1.875,2.05937 0.006,0 0.3625,0.48125 1.28125,-0.95626 -0.36875,-0.49062 -0.0219,-0.0312 -0.025,-0.0282 -1.95312,-2.14688 -0.025,-0.0282 -0.0282,-0.025 -0.95,-0.85938 z m -47.13749,6.18438 -1.10314,1.81562 -0.0219,0.0374 -0.016,0.0344 -1.16249,2.40625 1.44374,0.69375 1.14376,-2.37187 1.08125,-1.78125 -1.36563,-0.83439 z m 53.22811,1.46874 -1.36874,0.82813 0.19063,0.31563 1.23749,2.56875 0.49062,1.33749 1.50314,-0.55 -0.5,-1.36562 -0.0128,-0.0374 -0.0187,-0.0374 -1.27191,-2.64073 -0.0187,-0.0344 -0.0187,-0.0374 -0.21249,-0.34687 z m -55.75,7.86877 0,0.79376 0.19062,-0.74376 -0.19062,-0.05 z m 59.15,1.39376 -1.58125,0.24062 0.40314,2.65312 0.10624,2.03125 1.59686,-0.0781 -0.10304,-2.06562 -0.003,-0.0406 -0.006,-0.0374 -0.41249,-2.70313 z m -1.27187,9.55624 -0.35,2.29062 -0.59687,2.32501 1.55,0.4 0.60624,-2.3625 0.0128,-0.0406 0.003,-0.0374 0.35626,-2.33438 -1.58125,-0.24063 z m -57.15312,5.52188 -0.72501,0.26562 0,2.40626 0.0781,0.21249 0.0128,0.0344 0.016,0.0374 1.00626,2.08751 1.44062,-0.69688 -0.99688,-2.06876 -0.006,-0.0187 -0.82499,-2.25937 z m 54.54688,3.41874 -0.70626,1.46251 -0.01,0.0187 -1.45,2.38437 -0.12496,0.16875 1.28125,0.95938 0.14064,-0.18751 0.025,-0.0344 0.0187,-0.0312 1.51563,-2.49374 0.0187,-0.0344 0.0187,-0.0312 0.7125,-1.4875 -1.44063,-0.69375 z m -50.25626,4.85938 -1.28125,0.95937 0.98125,1.31563 0.0219,0.0282 0.0282,0.0282 1.95,2.15 0.025,0.0282 0.0282,0.025 0.19063,0.17188 1.07812,-1.18439 -0.16249,-0.14688 -1.90938,-2.10312 -0.016,-0.0187 -0.93437,-1.25313 z M 218,859.9934 l -0.5125,0.55938 -0.01,0.016 -2.06249,1.86875 -0.87187,0.65626 0.95624,1.28125 0.90313,-0.67501 0.0312,-0.0219 0.0282,-0.0312 2.14687,-1.95 0.0282,-0.025 0.025,-0.025 0.51875,-0.57499 -1.18119,-1.0786 z m -38.33749,3.71876 -0.95937,1.28124 0.6,0.45 0.0312,0.0219 0.0344,0.0219 2.49374,1.5125 0.0312,0.025 0.0344,0.016 1.02187,0.49064 0.69376,-1.44064 -1,-0.48125 -0.0187,-0.016 -2.40313,-1.46875 -0.55938,-0.4125 z m 31,1.93436 -2.53438,1.22189 -0.016,0 -1.77499,0.64687 0.30942,0.84688 2.02813,0 0.0594,-0.0219 0.0374,-0.016 0.0344,-0.0187 2.55312,-1.22813 -0.69687,-1.43125 z m -22.72813,2.19064 -0.1344,0.525 2.17188,0 -2.03751,-0.525 z"
       id="rect4171"
       inkscape:connector-curvature="0" />
    <rect
       style="opacity:1;fill:#ffffff;fill-opacity:1;stroke:none;stroke-width:1;stroke-linejoin:round;stroke-miterlimit:4;stroke-dasharray:none;stroke-opacity:1"
       id="rect4342"
       width="4.8000002"
       height="43.200001"
       x="179.2"
       y="810.76208" />
    <path
       style="opacity:1;fill:#ffffff;fill-opacity:1;stroke:none;stroke-width:0.40000001;stroke-linejoin:round;stroke-miterlimit:4;stroke-dasharray:none;stroke-opacity:1"
       d="m 201.6,825.16216 c -6.97395,0 -12.78634,4.95739 -14.1125,11.54062 -0.0931,0.46184 -0.1648,0.93269 -0.21249,1.40938 -0.0477,0.47712 -0.075,0.96032 -0.075,1.45 0.006,4.09051 1.7511,7.9855 4.8,10.71249 l 0,-0.003 c 2.63659,2.37 6.0548,3.6841 9.6,3.69063 4.5303,-0.005 8.79395,-2.14244 11.50937,-5.76876 l -3.8375,-2.87804 c -1.80984,2.41764 -4.65186,3.8427 -7.67187,3.84688 -5.30194,0 -9.6,-4.29807 -9.6,-9.6 0,-5.30194 4.29806,-9.6 9.6,-9.6 3.02001,0.005 5.86203,1.42923 7.67187,3.84688 l 3.83438,-2.87501 c -2.71408,-3.62661 -6.97646,-5.76474 -11.50622,-5.77187 z"
       id="path4236"
       inkscape:connector-curvature="0" />
    <g
       id="g5515"
       transform="translate(-24,63.99998)"
       style="fill:#1a8179;fill-opacity:1">
      <path
         style="opacity:1;fill:#1a8179;fill-opacity:1;stroke:none;stroke-width:2;stroke-linejoin:miter;stroke-miterlimit:4;stroke-dasharray:none;stroke-opacity:1"
         d="m 64,110 a 24,24 0 0 0 -24,24 24,24 0 0 0 24,24 24,24 0 0 0 24,-24 24,24 0 0 0 -24,-24 z m -5.984375,8.38672 c 0.533333,0 1.041484,0.0802 1.521484,0.24023 0.48,0.16 0.893568,0.32047 1.240235,0.48047 0.346666,0.16 0.692396,0.46659 1.039062,0.91992 0.373334,0.42667 0.653177,0.76 0.839844,1 0.186667,0.24 0.42737,0.68032 0.720703,1.32032 0.32,0.64 0.519609,1.06596 0.599609,1.27929 0.08,0.21334 0.267214,0.70714 0.560547,1.48047 0.293334,0.77334 0.466198,1.22604 0.519532,1.35938 l 6.640625,17.51953 c 0.213333,0.50666 0.585807,0.76172 1.11914,0.76172 0.133334,0 0.374037,-0.0535 0.720703,-0.16016 0.346667,-0.10667 0.558672,-0.20125 0.638672,-0.28125 l 0.800781,2.80078 c -1.279999,0.64 -2.360234,0.95899 -3.240234,0.95899 -0.666667,0 -1.226354,-0.15852 -1.679687,-0.47852 -0.426667,-0.32 -0.733256,-0.65333 -0.919922,-1 -0.186667,-0.37333 -0.400625,-0.92062 -0.640625,-1.64062 l -4.878906,-14.16016 -5.839844,16.80078 -3.839844,0 7.919922,-20.80078 c -0.373333,-1.04 -0.640781,-1.76016 -0.800781,-2.16016 -0.16,-0.42666 -0.413099,-0.90612 -0.759766,-1.43945 -0.346667,-0.56 -0.73349,-0.92008 -1.160156,-1.08008 -0.426667,-0.18666 -0.95961,-0.27929 -1.59961,-0.2793 l -2.160156,0.31836 0.400391,-3.27929 c 0.88,-0.32 1.624948,-0.48047 2.238281,-0.48047 z"
         transform="translate(160,710.36218)"
         id="path5513"
         inkscape:connector-curvature="0" />
    </g>
    <path
       style="opacity:1;fill:#8f237e;fill-opacity:1;stroke:none;stroke-width:2;stroke-linejoin:miter;stroke-miterlimit:4;stroke-dasharray:none;stroke-opacity:1"
       d="m 60,812.36216 a 24,24 0 0 0 -24,24 24,24 0 0 0 14.86914,22.18359 l 0,-29.05664 c 0,-5.9375 2.77344,-8.90625 8.32031,-8.90625 5.65104,0 8.47657,2.50651 8.47657,7.51953 0,3.56771 -1.1198,6.0026 -3.35938,7.30469 3.64583,1.17187 5.46875,3.49609 5.46875,6.97265 0,6.17188 -3.13802,9.25782 -9.41406,9.25782 -2.76042,0 -4.72005,-0.58594 -5.87891,-1.75782 l 0,9.66797 -0.5664,0 A 24,24 0 0 0 60,860.36216 a 24,24 0 0 0 24,-24 24,24 0 0 0 -24,-24 z m -0.41992,11.15039 c -3.39844,0 -5.09766,2.03125 -5.09766,6.09375 l 0,15.58593 c 1.44532,2.25261 3.45053,3.37891 6.01563,3.37891 3.75,0 5.625,-2.04427 5.625,-6.13281 0,-3.67188 -3.02084,-5.36459 -9.0625,-5.07813 l 0,-3.32031 c 4.72656,0 7.08984,-2.08333 7.08984,-6.25 0,-2.85157 -1.52343,-4.27734 -4.57031,-4.27734 z"
       id="circle5522"
       inkscape:connector-curvature="0" />
    <g
       style="font-style:normal;font-weight:normal;font-size:40px;line-height:125%;font-family:Sans;letter-spacing:0px;word-spacing:0px;fill:#ffffff;fill-opacity:1;stroke:none;stroke-width:1px;stroke-linecap:butt;stroke-linejoin:miter;stroke-opacity:1"
       id="text4813" />
    <path
       style="opacity:1;fill:#c86e2a;fill-opacity:1;stroke:none;stroke-width:2;stroke-linejoin:miter;stroke-miterlimit:4;stroke-dasharray:none;stroke-opacity:1"
       d="m 340,812.36216 a 24,24 0 0 0 -24,24 24,24 0 0 0 12.42383,21.01953 l 0,-27.77539 c 0,-5.9375 2.77344,-8.90625 8.32031,-8.90625 5.65105,0 8.47656,2.50651 8.47656,7.51953 0,3.56771 -1.11979,6.0026 -3.35937,7.30469 3.64583,1.17187 5.46875,3.4961 5.46875,6.97266 0,6.17187 -3.13802,9.25781 -9.41406,9.25781 -2.76042,0 -4.72006,-0.58594 -5.87891,-1.75781 l 0,8.97461 a 24,24 0 0 0 7.96289,1.39062 24,24 0 0 0 24,-24 24,24 0 0 0 -24,-24 z m -2.86523,11.26758 c -3.39844,0 -5.09766,2.03125 -5.09766,6.09375 l 0,15.58594 c 1.44531,2.2526 3.45052,3.3789 6.01562,3.3789 3.75,0 5.625,-2.04427 5.625,-6.13281 0,-3.67188 -3.02083,-5.36458 -9.0625,-5.07812 l 0,-3.32032 c 4.72656,0 7.08985,-2.08333 7.08985,-6.25 0,-2.85156 -1.52344,-4.27734 -4.57031,-4.27734 z m 16.97461,16.80859 c 1.35565,0 2.45682,0.53673 3.30078,1.61328 0.85061,1.07655 1.27539,2.49367 1.27539,4.24805 0,1.75438 -0.42478,3.16955 -1.27539,4.2461 -0.84396,1.07655 -1.94513,1.61328 -3.30078,1.61328 -0.8174,0 -1.52185,-0.15759 -2.11329,-0.47657 -0.58479,-0.32561 -1.06965,-0.82178 -1.45507,-1.48632 l 0,5.92187 -1.84375,0 0,-15.41211 1.84375,0 0,1.69531 c 0.38542,-0.66454 0.87028,-1.15563 1.45507,-1.47461 0.59144,-0.32562 1.2959,-0.48828 2.11329,-0.48828 z m -0.44727,1.53516 c -0.97023,0 -1.73476,0.38538 -2.29297,1.15625 -0.55157,0.76421 -0.82812,1.82091 -0.82812,3.16992 0,1.34901 0.27655,2.40883 0.82812,3.17969 0.55821,0.76421 1.32274,1.14648 2.29297,1.14648 0.97022,0 1.72968,-0.38227 2.28125,-1.14648 0.55821,-0.77086 0.83789,-1.83068 0.83789,-3.17969 0,-1.34901 -0.27968,-2.40571 -0.83789,-3.16992 -0.55157,-0.77087 -1.31103,-1.15625 -2.28125,-1.15625 z"
       id="path5534"
       inkscape:connector-curvature="0" />
    <g
       style="fill:#1a8179;fill-opacity:1;stroke:none;stroke-opacity:1"
       transform="translate(-24,119.99998)"
       id="g5547">
      <path
         inkscape:connector-curvature="0"
         id="path5549"
         transform="translate(160,710.36218)"
         d="m 64,110 a 24,24 0 0 0 -24,24 24,24 0 0 0 24,24 24,24 0 0 0 24,-24 24,24 0 0 0 -24,-24 z m -5.984375,8.38672 c 0.533333,0 1.041484,0.0802 1.521484,0.24023 0.48,0.16 0.893568,0.32047 1.240235,0.48047 0.346666,0.16 0.692396,0.46659 1.039062,0.91992 0.373334,0.42667 0.653177,0.76 0.839844,1 0.186667,0.24 0.42737,0.68032 0.720703,1.32032 0.32,0.64 0.519609,1.06596 0.599609,1.27929 0.08,0.21334 0.267214,0.70714 0.560547,1.48047 0.293334,0.77334 0.466198,1.22604 0.519532,1.35938 l 6.640625,17.51953 c 0.213333,0.50666 0.585807,0.76172 1.11914,0.76172 0.133334,0 0.374037,-0.0535 0.720703,-0.16016 0.346667,-0.10667 0.558672,-0.20125 0.638672,-0.28125 l 0.800781,2.80078 c -1.279999,0.64 -2.360234,0.95899 -3.240234,0.95899 -0.666667,0 -1.226354,-0.15852 -1.679687,-0.47852 -0.426667,-0.32 -0.733256,-0.65333 -0.919922,-1 -0.186667,-0.37333 -0.400625,-0.92062 -0.640625,-1.64062 l -4.878906,-14.16016 -5.839844,16.80078 -3.839844,0 7.919922,-20.80078 c -0.373333,-1.04 -0.640781,-1.76016 -0.800781,-2.16016 -0.16,-0.42666 -0.413099,-0.90612 -0.759766,-1.43945 -0.346667,-0.56 -0.73349,-0.92008 -1.160156,-1.08008 -0.426667,-0.18666 -0.95961,-0.27929 -1.59961,-0.2793 l -2.160156,0.31836 0.400391,-3.27929 c 0.88,-0.32 1.624948,-0.48047 2.238281,-0.48047 z"
         style="opacity:1;fill:#1a8179;fill-opacity:1;stroke:none;stroke-width:2;stroke-linejoin:miter;stroke-miterlimit:4;stroke-dasharray:none;stroke-opacity:1" />
    </g>
    <g
       id="g5551"
       transform="translate(-24,175.99998)"
       style="fill:#1a8179;fill-opacity:1">
      <path
         style="opacity:1;fill:#1a8179;fill-opacity:1;stroke:none;stroke-width:2;stroke-linejoin:miter;stroke-miterlimit:4;stroke-dasharray:none;stroke-opacity:1"
         d="m 64,110 a 24,24 0 0 0 -24,24 24,24 0 0 0 24,24 24,24 0 0 0 24,-24 24,24 0 0 0 -24,-24 z m -5.984375,8.38672 c 0.533333,0 1.041484,0.0802 1.521484,0.24023 0.48,0.16 0.893568,0.32047 1.240235,0.48047 0.346666,0.16 0.692396,0.46659 1.039062,0.91992 0.373334,0.42667 0.653177,0.76 0.839844,1 0.186667,0.24 0.42737,0.68032 0.720703,1.32032 0.32,0.64 0.519609,1.06596 0.599609,1.27929 0.08,0.21334 0.267214,0.70714 0.560547,1.48047 0.293334,0.77334 0.466198,1.22604 0.519532,1.35938 l 6.640625,17.51953 c 0.213333,0.50666 0.585807,0.76172 1.11914,0.76172 0.133334,0 0.374037,-0.0535 0.720703,-0.16016 0.346667,-0.10667 0.558672,-0.20125 0.638672,-0.28125 l 0.800781,2.80078 c -1.279999,0.64 -2.360234,0.95899 -3.240234,0.95899 -0.666667,0 -1.226354,-0.15852 -1.679687,-0.47852 -0.426667,-0.32 -0.733256,-0.65333 -0.919922,-1 -0.186667,-0.37333 -0.400625,-0.92062 -0.640625,-1.64062 l -4.878906,-14.16016 -5.839844,16.80078 -3.839844,0 7.919922,-20.80078 c -0.373333,-1.04 -0.640781,-1.76016 -0.800781,-2.16016 -0.16,-0.42666 -0.413099,-0.90612 -0.759766,-1.43945 -0.346667,-0.56 -0.73349,-0.92008 -1.160156,-1.08008 -0.426667,-0.18666 -0.95961,-0.27929 -1.59961,-0.2793 l -2.160156,0.31836 0.400391,-3.27929 c 0.88,-0.32 1.624948,-0.48047 2.238281,-0.48047 z"
         transform="translate(160,710.36218)"
         id="path5553"
         inkscape:connector-curvature="0" />
    </g>
    <text
       xml:space="preserve"
       style="font-style:normal;font-weight:normal;font-size:40px;line-height:125%;font-family:Sans;letter-spacing:0px;word-spacing:0px;fill:#771e69;fill-opacity:1;stroke:none;stroke-width:1px;stroke-linecap:butt;stroke-linejoin:miter;stroke-opacity:1"
       x="59.931404"
       y="783.8736"
       id="text5657"
       sodipodi:linespacing="125%"><tspan
         sodipodi:role="line"
         id="tspan5659"
         x="59.931404"
         y="783.8736"
         style="font-style:normal;font-variant:normal;font-weight:normal;font-stretch:normal;font-size:16.25px;font-family:FreeSans;-inkscape-font-specification:FreeSans;text-align:center;text-anchor:middle;fill:#771e69;fill-opacity:1">Input</tspan></text>
    <text
       sodipodi:linespacing="125%"
       id="text5661"
       y="783.97107"
       x="339.92172"
       style="font-style:normal;font-weight:normal;font-size:40px;line-height:125%;font-family:Sans;letter-spacing:0px;word-spacing:0px;fill:#93511f;fill-opacity:1;stroke:none;stroke-width:1px;stroke-linecap:butt;stroke-linejoin:miter;stroke-opacity:1"
       xml:space="preserve"><tspan
         style="font-style:normal;font-variant:normal;font-weight:normal;font-stretch:normal;font-size:16.25px;font-family:FreeSans;-inkscape-font-specification:FreeSans;text-align:center;text-anchor:middle;fill:#93511f;fill-opacity:1"
         y="783.97107"
         x="339.92172"
         sodipodi:role="line"
         id="tspan5665">Output</tspan></text>
    <text
       xml:space="preserve"
       style="font-style:normal;font-weight:normal;font-size:40px;line-height:125%;font-family:Sans;letter-spacing:0px;word-spacing:0px;fill:#1a237e;fill-opacity:1;stroke:none;stroke-width:1px;stroke-linecap:butt;stroke-linejoin:miter;stroke-opacity:1;"
       x="220.3425"
       y="888.36218"
       id="text5667"
       sodipodi:linespacing="125%"><tspan
         sodipodi:role="line"
         id="tspan5669"
         x="220.3425"
         y="888.36218"
         style="font-style:normal;font-variant:normal;font-weight:normal;font-stretch:normal;font-size:16.25px;font-family:FreeSans;-inkscape-font-specification:FreeSans;fill:#1a237e;fill-opacity:1;">1</tspan></text>
    <text
       sodipodi:linespacing="125%"
       id="text5673"
       y="944.36218"
       x="220.3425"
       style="font-style:normal;font-weight:normal;font-size:40px;line-height:125%;font-family:Sans;letter-spacing:0px;word-spacing:0px;fill:#1a237e;fill-opacity:1;stroke:none;stroke-width:1px;stroke-linecap:butt;stroke-linejoin:miter;stroke-opacity:1;"
       xml:space="preserve"><tspan
         style="font-style:normal;font-variant:normal;font-weight:bold;font-stretch:normal;font-size:16.25px;font-family:FreeSans;-inkscape-font-specification:FreeSans;fill:#1a237e;fill-opacity:1;"
         y="944.36218"
         x="220.3425"
         id="tspan5675"
         sodipodi:role="line">2</tspan></text>
    <text
       xml:space="preserve"
       style="font-style:normal;font-weight:normal;font-size:40px;line-height:125%;font-family:Sans;letter-spacing:0px;word-spacing:0px;fill:#1a237e;fill-opacity:1;stroke:none;stroke-width:1px;stroke-linecap:butt;stroke-linejoin:miter;stroke-opacity:1;"
       x="220.3425"
       y="1000.3622"
       id="text5677"
       sodipodi:linespacing="125%"><tspan
         sodipodi:role="line"
         id="tspan5679"
         x="220.3425"
         y="1000.3622"
         style="font-style:normal;font-variant:normal;font-weight:normal;font-stretch:normal;font-size:16.25px;font-family:FreeSans;-inkscape-font-specification:FreeSans;fill:#1a237e;fill-opacity:1;">3</tspan></text>
    <text
       xml:space="preserve"
       style="font-style:normal;font-weight:normal;font-size:40px;line-height:125%;font-family:Sans;letter-spacing:0px;word-spacing:0px;fill:#000000;fill-opacity:1;stroke:none;stroke-width:1px;stroke-linecap:butt;stroke-linejoin:miter;stroke-opacity:1"
       x="80.342499"
       y="816.36218"
       id="text5681"
       sodipodi:linespacing="125%"><tspan
         sodipodi:role="line"
         id="tspan5683"
         x="80.342499"
         y="816.36218"
         style="font-style:normal;font-variant:normal;font-weight:normal;font-stretch:normal;font-size:16.25px;font-family:FreeSans;-inkscape-font-specification:FreeSans">2</tspan></text>
    <text
       sodipodi:linespacing="125%"
       id="text5685"
       y="868.36218"
       x="80.342499"
       style="font-style:normal;font-weight:normal;font-size:40px;line-height:125%;font-family:Sans;letter-spacing:0px;word-spacing:0px;fill:#000000;fill-opacity:1;stroke:none;stroke-width:1px;stroke-linecap:butt;stroke-linejoin:miter;stroke-opacity:1"
       xml:space="preserve"><tspan
         style="font-style:normal;font-variant:normal;font-weight:normal;font-stretch:normal;font-size:16.25px;font-family:FreeSans;-inkscape-font-specification:FreeSans"
         y="868.36218"
         x="80.342499"
         id="tspan5687"
         sodipodi:role="line">x</tspan></text>
    <text
       sodipodi:linespacing="125%"
       id="text5693"
       y="816.36218"
       x="360.3425"
       style="font-style:normal;font-weight:normal;font-size:40px;line-height:125%;font-family:Sans;letter-spacing:0px;word-spacing:0px;fill:#000000;fill-opacity:1;stroke:none;stroke-width:1px;stroke-linecap:butt;stroke-linejoin:miter;stroke-opacity:1"
       xml:space="preserve"><tspan
         style="font-style:normal;font-variant:normal;font-weight:normal;font-stretch:normal;font-size:16.25px;font-family:FreeSans;-inkscape-font-specification:FreeSans"
         y="816.36218"
         x="360.3425"
         id="tspan5695"
         sodipodi:role="line">2</tspan></text>
    <text
       xml:space="preserve"
       style="font-style:normal;font-weight:normal;font-size:40px;line-height:125%;font-family:Sans;letter-spacing:0px;word-spacing:0px;fill:#000000;fill-opacity:1;stroke:none;stroke-width:1px;stroke-linecap:butt;stroke-linejoin:miter;stroke-opacity:1"
       x="360.3425"
       y="868.36218"
       id="text5697"
       sodipodi:linespacing="125%"><tspan
         sodipodi:role="line"
         id="tspan5699"
         x="360.3425"
         y="868.36218"
         style="font-style:normal;font-variant:normal;font-weight:normal;font-stretch:normal;font-size:16.25px;font-family:FreeSans;-inkscape-font-specification:FreeSans">x</tspan></text>
    <text
       sodipodi:linespacing="125%"
       id="text5709"
       y="783.8736"
       x="199.6828"
       style="font-style:normal;font-weight:normal;font-size:40px;line-height:125%;font-family:Sans;letter-spacing:0px;word-spacing:0px;fill:#1a237e;fill-opacity:1;stroke:none;stroke-width:1px;stroke-linecap:butt;stroke-linejoin:miter;stroke-opacity:1"
       xml:space="preserve"><tspan
         style="font-style:normal;font-variant:normal;font-weight:normal;font-stretch:normal;font-size:16.25px;font-family:FreeSans;-inkscape-font-specification:FreeSans;text-align:center;text-anchor:middle;fill:#1a237e;fill-opacity:1"
         y="783.8736"
         x="199.6828"
         id="tspan5711"
         sodipodi:role="line">Lua/compute</tspan></text>
  </g>
</svg>
